<svg width="321" height="321" viewBox="0 0 321 321" fill="none" xmlns="http://www.w3.org/2000/svg">
<path d="M74 201.754L88.6113 227.019H88.6185C90.0744 229.907 92.3035 232.335 95.0576 234.031C97.8117 235.728 100.983 236.627 104.217 236.627H201.22L181.094 201.754H74ZM247 201.934C247 198.445 245.969 195.194 244.203 192.462L187.373 93.6646C185.886 90.8592 183.663 88.5119 180.943 86.8748C178.222 85.2378 175.107 84.3729 171.932 84.373H141.895L229.686 236.476L243.526 212.508C246.25 207.917 247 205.884 247 201.934ZM166.778 176.979L127.544 109.018L88.3013 176.979H166.778Z" fill="black"/>
<circle cx="160.5" cy="160.5" r="158.5" stroke="black" stroke-width="4"/>
</svg>
