<svg width="173" height="153" viewBox="0 0 173 153" fill="none" xmlns="http://www.w3.org/2000/svg">
<path d="M0 117.38L14.6113 142.646H14.6185C16.0744 145.534 18.3035 147.962 21.0576 149.658C23.8117 151.355 26.9827 152.254 30.2173 152.254H127.22L107.094 117.38H0ZM173 117.561C173 114.072 171.969 110.821 170.203 108.089L113.373 9.29154C111.886 6.48613 109.663 4.13881 106.943 2.50176C104.222 0.864707 101.107 -0.000187393 97.9324 3.04547e-08H67.8953L155.686 152.103L169.526 128.135C172.25 123.544 173 121.511 173 117.561ZM92.7785 92.6055L53.5435 24.6453L14.3013 92.6055H92.7785Z" fill="#DCE1E9"/>
</svg>
