<svg width="321" height="321" viewBox="0 0 321 321" fill="none" xmlns="http://www.w3.org/2000/svg">
<circle cx="160.5" cy="160.5" r="158.5" stroke="black" stroke-width="4"/>
<path d="M145.517 175.742C145.517 183.432 139.923 185.862 133.051 185.862H115.031V164.785H133.41C140.842 164.825 145.517 167.893 145.517 175.742ZM142.44 142.951C142.44 135.898 136.966 134.225 130.893 134.225H115.071V152.075H132.132C138.165 152.075 142.44 149.445 142.44 142.951ZM195.301 152.195C187.989 152.195 183.115 156.737 182.635 164.028H207.488C206.808 156.657 202.973 152.195 195.301 152.195ZM250 90.875V231.125C250 241.684 241.41 250.25 230.821 250.25H90.1786C79.5904 250.25 71 241.684 71 231.125V90.875C71 80.3164 79.5904 71.75 90.1786 71.75H230.821C241.41 71.75 250 80.3164 250 90.875ZM179.559 132.711H210.644V125.18H179.559V132.711ZM162.378 176.659C162.378 167.056 157.823 158.769 148.394 156.099C155.266 152.832 158.862 149.047 158.862 141.357C158.862 126.137 147.475 122.431 134.329 122.431H98.1696V198.931H135.368C149.313 198.852 162.378 192.198 162.378 176.659ZM222.83 170.762C222.83 154.386 213.201 140.72 195.821 140.72C178.879 140.72 167.412 153.39 167.412 170.045C167.412 187.297 178.32 199.13 195.821 199.13C209.086 199.13 217.676 193.194 221.831 180.484H208.367C206.888 185.225 200.935 187.695 196.3 187.695C187.35 187.695 182.675 182.476 182.675 173.63H222.71C222.75 172.714 222.83 171.718 222.83 170.762Z" fill="black"/>
</svg>
