<svg width="438" height="371" viewBox="0 0 438 371" fill="none" xmlns="http://www.w3.org/2000/svg">
<path d="M37.4174 298.727C36.1277 291.174 42.908 283.766 54.6736 285.544C60.0669 280.584 61.1979 270.558 52.1377 266.645C46.6591 264.279 50.5291 257.377 56.7738 258.946C68.5685 261.91 74.2732 269.545 72.9343 285.092C72.131 294.42 63.8072 306.348 53.1522 307.646C43.8716 308.776 38.6484 305.936 37.4174 298.727Z" fill="#DCE1E9"/>
<path d="M31.5504 270.602L84.8337 236.532L115.826 332.641C122.25 353.713 126.013 365.289 145.637 367.068L165.373 356.582C170.868 340.881 171.57 336.992 174.764 319.312L175.001 318C182.719 336.509 194.501 339.5 203.075 336.378L225.873 324.402C230.07 320.492 231.831 315.102 235.346 300.38C243.98 259.192 256.356 198.799 270.459 140.85C273.667 127.67 277.268 123.315 271.773 124.14C260.782 125.791 244.155 136.545 241.025 149.378L203.075 307.646L191.001 273.5C187.695 265.308 188.25 260.084 184.313 261.396C170.501 266 161.575 275.878 159.077 286.498L147.524 331.857L116.366 242.992C114.12 235.808 116.853 218.158 124.531 210.728C128.525 206.863 128.768 205.321 127.109 203.424C125.623 202.333 124.252 202.506 120.588 204.62L15.4287 259.969C5.41419 265.951 2.00768 269.444 4.08084 275.074C6.77856 281.778 22.0479 276.698 31.5504 270.602Z" fill="#DCE1E9"/>
<path d="M260.297 230.102C262.694 234.104 274.838 228.544 287.916 223.687C277.61 237.219 270.745 248.735 271.552 260.478C272.36 272.222 276.17 282.275 293.316 284.068C310.462 285.861 326.646 262.527 326.576 256.484C326.475 247.754 318.173 248.522 315.786 252.579C312.163 258.737 303.167 264.814 297.424 261.786C287.82 256.724 292.101 237.07 307.343 219.433C312.312 242.545 334.978 257.058 347.729 256.239C357.781 255.593 364.556 250.488 366.356 240.913C367.938 232.5 364.763 219.256 355.02 218.881C348.301 218.623 344.323 223.035 346.399 228.383C348.649 234.179 344.796 238.75 338.442 237.206C322.615 233.36 319.419 218.286 318.928 204.86C325.197 199.796 329.223 195.002 327.162 190.997C326.475 189.662 322.107 189.376 318.433 191.098L269.645 216.6C262.629 219.703 257.9 226.101 260.297 230.102Z" fill="#DCE1E9"/>
<path d="M399.869 71.7981C401.159 79.3508 394.379 86.7584 382.613 84.981C377.22 89.941 376.089 99.9668 385.149 103.88C390.628 106.246 386.757 113.148 380.513 111.579C368.718 108.615 363.013 100.98 364.352 85.4328C365.156 76.1046 373.479 64.1771 384.134 62.8792C393.415 61.7487 398.638 64.5888 399.869 71.7981Z" fill="#DCE1E9"/>
<path d="M405.736 99.9227L352.453 133.993L321.46 37.8839C315.037 16.8118 311.274 5.23553 291.649 3.45667L271.913 13.9428C266.419 29.6437 265.716 33.5332 262.523 51.2125L262.286 52.5248C254.568 34.0156 242.786 31.0248 234.211 34.1467L211.413 46.1227C207.217 50.0329 205.455 55.4226 201.94 70.1451C193.306 111.333 180.931 171.726 166.827 229.674C163.62 242.854 160.018 247.21 165.514 246.385C176.505 244.734 193.132 233.98 196.262 221.146L234.211 62.8792L246.286 97.0248C249.591 105.217 249.037 110.441 252.974 109.129C266.786 104.525 275.711 94.6468 278.209 84.0269L289.763 38.6682L320.921 127.533C323.167 134.717 320.434 152.367 312.755 159.797C308.761 163.662 308.518 165.204 310.178 167.101C311.664 168.192 313.034 168.019 316.699 165.905L421.858 110.556C431.872 104.574 435.279 101.081 433.206 95.4508C430.508 88.7465 415.239 93.8268 405.736 99.9227Z" fill="#DCE1E9"/>
<path d="M176.989 140.422C174.592 136.421 162.449 141.981 149.37 146.838C159.676 133.306 166.542 121.79 165.735 110.047C164.927 98.3033 161.117 88.25 143.971 86.457C126.824 84.6639 110.64 107.998 110.71 114.041C110.811 122.771 119.114 122.003 121.501 117.946C125.123 111.788 134.12 105.711 139.863 108.739C149.467 113.801 145.186 133.454 129.943 151.092C124.975 127.98 102.308 113.467 89.5577 114.286C79.5052 114.932 72.7305 120.037 70.9304 129.612C69.3487 138.025 72.5241 151.269 82.2665 151.643C88.9854 151.902 92.964 147.49 90.8874 142.141C88.6374 136.346 92.491 131.775 98.8445 133.319C114.671 137.165 117.868 152.239 118.359 165.665C112.09 170.729 108.063 175.522 110.124 179.528C110.811 180.863 115.18 181.149 118.854 179.427L167.642 153.925C174.657 150.822 179.386 144.424 176.989 140.422Z" fill="#DCE1E9"/>
</svg>
